<?xml version="1.0" standalone="no"?><!DOCTYPE svg PUBLIC "-//W3C//DTD SVG 1.1//EN" "http://www.w3.org/Graphics/SVG/1.1/DTD/svg11.dtd"><svg class="icon" width="200px" height="200.00px" viewBox="0 0 1024 1024" version="1.1" xmlns="http://www.w3.org/2000/svg"><path d="M594.2 460.8c-27.2 0-54.5 7.4-79.2 19.8-14.9 7.4-17.3 27.2-5 39.6l84.2 84.2-29.7 29.7-84.2-84.2c-5-4.9-9.9-7.4-17.3-7.4-9.9 0-17.3 4.9-22.3 14.9-32.2 64.4-22.3 146.1 32.2 200.5 34.7 34.7 76.7 49.5 121.3 49.5 19.8 0 39.6-2.5 56.9-9.9l141.1 136.2 17.3 17.3c9.9 9.9 24.8 9.9 34.7 0l69.3-69.3c9.9-9.9 9.9-24.8 0-34.7l-17.3-17.3-141.1-136.2c22.3-61.9 7.4-131.2-39.6-180.7-34.7-34.7-79.2-52-121.3-52z m113.9 215.4c-7.4 17.3-2.5 37.1 12.4 52l141.1 136.2-34.7 34.6-141.1-136.2c-9.9-9.9-22.3-14.9-34.7-14.9-5 0-9.9 0-17.3 2.5-12.4 4.9-27.2 7.4-42.1 7.4-32.2 0-64.4-12.4-86.7-37.1-29.7-29.7-42.1-69.3-34.7-108.9l56.9 56.9c9.9 9.9 22.3 14.9 34.7 14.9 12.4 0 24.8-5 34.7-14.9l29.7-29.7c19.8-19.8 19.8-52 0-69.3l-56.9-56.9c7.4-2.5 14.9-2.5 22.3-2.5 32.2 0 64.4 12.4 86.7 37.1 34.6 32.2 47 81.7 29.7 128.8zM450.6 436c0-14.9-12.4-24.8-24.8-24.8H277.3c-12.4 0-24.8 9.9-24.8 24.8s12.4 24.8 24.8 24.8h148.5c12.4 0 24.8-12.4 24.8-24.8zM349.1 559.8h-66.8c-14.9 0-27.2 9.9-27.2 24.8s12.4 24.8 27.2 24.8h66.8c14.9 0 27.2-9.9 27.2-24.8s-12.4-24.8-27.2-24.8z m0 148.6h-66.8c-14.9 0-27.2 9.9-27.2 24.8s12.4 24.8 27.2 24.8h66.8c14.9 0 27.2-9.9 27.2-24.8s-12.4-24.8-27.2-24.8z m-71.8-396.2h445.6c12.4 0 24.8-12.4 24.8-24.8s-12.4-24.8-24.8-24.8H277.3c-12.4 0-24.8 12.4-24.8 24.8 0 12.5 12.4 24.8 24.8 24.8z m0 0" fill="#d81e06" /><path d="M871.5 64.7H128.8C116.4 64.7 104 77 104 89.4v841.7c0 14.9 12.4 24.8 24.8 24.8h371.4c14.9 0 24.8-9.9 24.8-24.8s-9.9-24.8-24.8-24.8H153.5V114.2h693.2v371.4c0 14.9 9.9 24.8 24.8 24.8s24.8-9.9 24.8-24.8V89.4c-0.1-14.8-12.4-24.7-24.8-24.7z m0 0" fill="#d81e06" /></svg>