<?xml version="1.0" standalone="no"?><!DOCTYPE svg PUBLIC "-//W3C//DTD SVG 1.1//EN" "http://www.w3.org/Graphics/SVG/1.1/DTD/svg11.dtd"><svg class="icon" width="200px" height="200.00px" viewBox="0 0 1024 1024" version="1.1" xmlns="http://www.w3.org/2000/svg"><path d="M1010.2784 826.7776l-156.8768-205.4144c55.7056-53.248 90.5216-127.7952 90.5216-210.7392 0-160.768-130.8672-291.6352-291.6352-291.6352S360.6528 249.856 360.6528 410.624 491.52 702.2592 652.288 702.2592c51.8144 0 100.352-13.7216 142.5408-37.4784L952.32 871.0144c7.168 9.4208 18.0224 14.336 29.0816 14.336 7.7824 0 15.5648-2.4576 22.1184-7.5776 15.7696-12.0832 18.8416-35.0208 6.7584-50.9952zM433.5616 410.624c0-120.6272 98.0992-218.7264 218.7264-218.7264s218.7264 98.0992 218.7264 218.7264-98.0992 218.7264-218.7264 218.7264-218.7264-98.0992-218.7264-218.7264z m0 0M287.5392 263.9872H68.8128c-20.0704 0-36.4544-16.384-36.4544-36.4544s16.384-36.4544 36.4544-36.4544h218.7264c20.0704 0 36.4544 16.384 36.4544 36.4544s-16.384 36.4544-36.4544 36.4544z m0 0M214.6304 555.6224H68.8128c-20.0704 0-36.4544-16.384-36.4544-36.4544s16.384-36.4544 36.4544-36.4544h145.8176c20.0704 0 36.4544 16.384 36.4544 36.4544 0 20.2752-16.384 36.4544-36.4544 36.4544z m0 0M469.8112 810.8032H68.8128c-20.0704 0-36.4544-16.384-36.4544-36.4544s16.384-36.4544 36.4544-36.4544h400.9984c20.0704 0 36.4544 16.384 36.4544 36.4544 0 20.2752-16.384 36.4544-36.4544 36.4544z m0 0" fill="#d81e06" /></svg>