<?xml version="1.0" standalone="no"?><!DOCTYPE svg PUBLIC "-//W3C//DTD SVG 1.1//EN" "http://www.w3.org/Graphics/SVG/1.1/DTD/svg11.dtd"><svg class="icon" width="200px" height="183.35px" viewBox="0 0 1117 1024" version="1.1" xmlns="http://www.w3.org/2000/svg"><path d="M930.909091 837.818182H186.181818a186.181818 186.181818 0 0 1-186.181818-186.181818V186.181818a186.181818 186.181818 0 0 1 186.181818-186.181818h232.727273a185.064727 185.064727 0 0 1 139.636364 64.186182A184.971636 184.971636 0 0 1 698.181818 0h232.727273a186.181818 186.181818 0 0 1 186.181818 186.181818v465.454546a186.181818 186.181818 0 0 1-186.181818 186.181818zM512 232.727273a139.636364 139.636364 0 0 0-139.636364-139.636364H232.727273a139.636364 139.636364 0 0 0-139.636364 139.636364v372.363636a139.636364 139.636364 0 0 0 139.636364 139.636364h279.272727V232.727273z m512 0a139.636364 139.636364 0 0 0-139.636364-139.636364h-139.636363a139.636364 139.636364 0 0 0-139.636364 139.636364v512h279.272727a139.636364 139.636364 0 0 0 139.636364-139.636364V232.727273zM186.181818 465.454545h232.727273v93.09091H186.181818v-93.09091z m0-232.727272h232.727273v93.090909H186.181818V232.727273z m837.818182 791.272727H93.090909v-93.090909h930.909091v93.090909z" fill="#d81e06" /></svg>