<?xml version="1.0" standalone="no"?><!DOCTYPE svg PUBLIC "-//W3C//DTD SVG 1.1//EN" "http://www.w3.org/Graphics/SVG/1.1/DTD/svg11.dtd"><svg class="icon" width="200px" height="200.00px" viewBox="0 0 1024 1024" version="1.1" xmlns="http://www.w3.org/2000/svg"><path d="M460.5 189.8l-37.9 290.6c39.1 23 89.1 48.5 149.3 70.8 62.8 23.3 119.6 36.9 165.6 44.9 145-183.5 167.7-255.3 161.1-245.3-11.9 18.2-70.6 23.2-86.7 17.4-32.2-11.5-60.8-42.7-74.3-92.5-16.9-62.2-49.5-57.5-107.6-24.3-67 38.1-138.2 5-169.5-61.6z" fill="#ffffff" /><path d="M435.5 189.8c-4.3 32.8-8.6 65.7-12.9 98.5l-20.4 156.3c-1.6 11.9-3.1 23.9-4.7 35.8-1.1 8.4 5.5 17.6 12.4 21.6 79.4 46.5 165.7 81.9 255 104.3 21.8 5.5 43.8 10.1 65.9 14 8.2 1.4 18.6 0.8 24.3-6.4C802.7 553.7 849.2 492 889 426.2c9-14.9 17.7-30 25.2-45.7 2.8-5.8 5.4-11.8 7.8-17.8 1.5-3.8 2.7-8.1 2.6-12.2-0.5-13.7-10.8-25.4-25.1-25.4-9.6 0-17 5.2-22.1 12.9-2.2 3.2 3.8-3.9 1.8-2.4-0.5 0.4-1 0.9-1.4 1.3-1.5 1.7-3.8 1.3 2.9-2.1-1.4 0.7-2.7 1.8-4.1 2.6-1.3 0.7-2.6 1.3-3.8 1.9-3.8 1.9 6.3-2.4 2.2-1-0.7 0.2-1.3 0.5-2 0.7-3.5 1.2-7.1 2.2-10.7 3.1-3.8 0.9-7.7 1.6-11.5 2.3-6.4 1 6.1-0.7-0.4 0.1-1.9 0.2-3.9 0.4-5.8 0.6-7 0.6-14 0.8-21 0.3-2.6-0.2-8-1.6 1.6 0.4-1.2-0.2-2.4-0.4-3.6-0.7-0.8-0.2-1.6-0.4-2.4-0.7-0.9-0.3-1.8-0.7-2.7-1-3.9-1.4 5.8 2.7 1.7 0.7-3.4-1.6-6.7-3.2-9.9-5.1-1.5-0.9-3.1-1.9-4.5-2.9l-3-2.1c-1.6-1.2-4.2-4.2 1.2 0.9-2.7-2.6-5.8-4.9-8.5-7.5-3.4-3.4-6.2-7.5-9.7-10.8 0.2 0.2 3.8 5.1 1.4 1.8-0.7-0.9-1.4-1.9-2-2.8-1.2-1.7-2.4-3.5-3.5-5.3-2.8-4.3-5.3-8.8-7.6-13.4-1-2-2-4.1-3-6.2-0.2-0.5-0.4-0.9-0.6-1.4-1.1-2.5-0.8-1.9 0.7 1.6 0.1-0.4-1.1-2.9-1.2-3-2-5.1-3.7-10.4-5.3-15.6-3.1-10.5-6.4-20.7-11-30.6-7.8-16.5-20.7-29.7-37.9-36-15-5.5-32.3-3.5-47.2 1.2-18.4 5.8-35.1 15.3-51.9 24.4-2.3 1.2-4.5 2.4-6.9 3.5-0.6 0.3-5.3 2.1-1.1 0.6 4.1-1.6-0.5 0.2-1.1 0.4-4.5 1.7-9.1 3.2-13.7 4.4-2.3 0.6-4.5 1.1-6.8 1.5-0.9 0.2-1.8 0.3-2.7 0.5-5.1 0.9 6.4-0.6 1.2-0.2-4.5 0.4-9 0.7-13.5 0.6-2.2 0-4.4-0.1-6.7-0.3-0.9-0.1-1.8-0.2-2.6-0.2-4.9-0.4 5.4 0.9 2.1 0.3-4.5-0.9-9.1-1.6-13.5-2.9-4-1.1-7.9-2.7-11.8-4.1-3.1-1.1 6 2.8 1.7 0.7-0.8-0.4-1.6-0.7-2.4-1.1-2.4-1.2-4.7-2.4-7.1-3.7-3.5-2-6.9-4.2-10.2-6.5-1.1-0.8-2.1-1.7-3.3-2.4 0.3 0.2 4.9 4 1.8 1.4-1.9-1.6-3.9-3.2-5.7-4.9-3.3-3-6.4-6.1-9.3-9.3-1.6-1.7-3.1-3.5-4.6-5.3-0.6-0.7-1.1-1.6-1.8-2.2 5 5 1.3 1.6 0-0.1-5.6-7.8-10.4-16-14.4-24.7-5.6-11.8-23.5-15.9-34.2-9-12.2 7.9-15 21.5-9 34.2 18 37.9 49.7 68.5 89.3 82.7 17.7 6.4 37.7 8.8 56.4 6.6 10.9-1.3 21.6-3.2 32-7 11-4 21.1-9.2 31.2-14.8 7.8-4.3 16.2-9.7 24.7-12.4-0.1 0-6.2 2.5-2.6 1.1 0.9-0.4 1.8-0.7 2.8-1.1 1.6-0.6 3.2-1.2 4.9-1.8 3.3-1.1 6.7-2.1 10.2-2.9 1.6-0.3 3.2-0.5 4.8-0.9-8.7 2.1-3.9 0.5-1.2 0.4 1.3-0.1 2.6-0.1 3.9 0 0.7 0 1.4 0.1 2.1 0.1 3.7 0.1-6.9-1.5-3.4-0.4 1.3 0.4 2.6 0.6 3.9 1 0.5 0.2 1 0.4 1.5 0.5 3.5 1-5.8-2.8-3.4-1.4 1.1 0.6 2.2 1.1 3.2 1.7 0.6 0.4 1.1 0.8 1.7 1.1 2.2 1.3-5.7-4.8-2.4-1.8 1 0.9 2 1.8 2.9 2.7 2.2 2.3 3.3 5.7-0.3-0.8 1.7 3 3.9 5.7 5.5 8.8 0.9 1.7 1.6 3.5 2.5 5.2-3.9-7.5-0.5-1.2 0.3 1.1 1.6 4.5 3 9.2 4.3 13.8 5.8 20.6 14.6 41.1 27.2 58.5 11.8 16.2 25.9 30.5 43.4 40.5 7.3 4.2 15.4 8.3 23.6 10.2 7.3 1.7 15.1 2.3 22.6 2.3 16.7 0.1 34.2-2 50.2-6.7 7.8-2.3 15.8-5.2 22.7-9.5 7.5-4.7 11.2-9.6 16.7-16.2-4 4.8-3.3 5.1-8.5 8.5-3 1.9-8.8 3.6-12.5 3.4-2.1-0.6-4.2-1.1-6.3-1.7-6.7-0.7-11.8-4.2-15.2-10.6-2.1-3.6-3.5-8.5-3.4-12.3 0-0.3 2-9.1 0.5-4.7-0.4 1.2-0.8 2.4-1.3 3.6-0.3 0.7-0.6 1.5-0.9 2.2-1.2 3.1 3.3-7.5 1.8-4.3-0.2 0.5-0.4 1-0.7 1.5-5.9 13.3-12.9 26-20.2 38.6-33.6 58.2-73.5 112.8-114.4 165.9-0.8 1-1.5 2-2.3 2.9-2.7 3.6 0 0 0.5-0.6-1.9 2.5-3.9 5-5.8 7.5-4 5.2-8.1 10.3-12.1 15.4 8.1-2.1 16.2-4.3 24.3-6.4-41.9-7.4-83.2-17.6-123.7-30.5-23.5-7.5-46.6-15.9-69.4-25.2-2.6-1-5.1-2.1-7.7-3.2-5.6-2.3 3.6 1.6 0.1 0l-4.2-1.8c-5.4-2.4-10.9-4.8-16.3-7.2-9.8-4.4-19.5-9.1-29.2-13.8-19.9-9.8-39.4-20.4-58.5-31.6 4.1 7.2 8.3 14.4 12.4 21.6 4.3-32.8 8.6-65.7 12.9-98.5l20.4-156.3c1.6-11.9 3.1-23.9 4.7-35.8 0.8-5.9-3.3-13.7-7.3-17.7-4.3-4.3-11.5-7.6-17.7-7.3-6.5 0.3-13.2 2.4-17.7 7.3-4.6 5.3-6.2 10.8-7.1 17.8z" fill="#ffcb40" /><path d="M494.5 451.4c54.1 36 115 62.3 178.3 76.9 12.7 2.9 27.7-3.9 30.8-17.5 2.9-12.8-3.8-27.6-17.5-30.8-15-3.5-29.9-7.6-44.6-12.4-7.3-2.4-14.6-4.9-21.8-7.7-3.9-1.5-7.8-3-11.6-4.5-1.7-0.7-3.3-1.3-4.9-2-4.7-2 4.6 2-1.4-0.6-28.6-12.4-56-27.4-82-44.7-10.9-7.3-28.1-2.5-34.2 9-6.7 12.6-2.7 26.5 8.9 34.3z" fill="#ffcb40" /><path d="M209.1 759.6v-82.5-130.9V516c-15.5 4.2-31.1 8.4-46.6 12.6 13 27.5 26 55.1 38.9 82.6 20.5 43.5 41.1 87.1 61.6 130.6 4.8 10.1 9.5 20.2 14.3 30.2 4.5 9.5 18.4 14.7 28.2 11.5 10.5-3.4 18.4-12.8 18.4-24.1v-82.5V546v-30.2c0-13.1-11.5-25.6-25-25-13.5 0.6-25 11-25 25v243.6c15.5-4.2 31.1-8.4 46.6-12.6-13-27.5-26-55.1-38.9-82.6-20.5-43.5-41.1-87.1-61.6-130.6-4.8-10.1-9.5-20.2-14.3-30.2-4.5-9.5-18.4-14.7-28.2-11.5-10.5 3.4-18.4 12.8-18.4 24.1v243.6c0 13.1 11.5 25.6 25 25 13.6-0.6 25-11 25-25zM500.4 491.1H385.6c-13.5 0-25 11.5-25 25v240.7c0 13.5 11.5 25 25 25h114.8c13.1 0 25.6-11.5 25-25-0.6-13.5-11-25-25-25H385.6l25 25v-81.1-129.9-29.7l-25 25h114.8c13.1 0 25.6-11.5 25-25-0.6-13.5-11-25-25-25z" fill="#4381ff" /><path d="M473.5 607.3c-29.3 0.2-58.6 0.5-87.9 0-13.1-0.2-25.6 11.6-25 25 0.6 13.7 11 24.8 25 25 29.3 0.5 58.6 0.2 87.9 0 13.1-0.1 25.6-11.4 25-25-0.6-13.5-10.9-25.1-25-25zM559.3 516.1v243.6c0 10.6 7.7 21.7 18.4 24.1 10.9 2.5 22.3-1.7 28.2-11.5 21.3-35.5 42.6-71 64-106.6 3-5.1 6.1-10.1 9.1-15.2h-43.2c21.3 35.5 42.6 71 64 106.6 3 5.1 6.1 10.1 9.1 15.2 5.5 9.1 17.7 14.9 28.2 11.5 10.5-3.4 18.4-12.8 18.4-24.1v-82.5-130.9-30.2c0-13.1-11.5-25.6-25-25-13.5 0.6-25 11-25 25v243.6c15.5-4.2 31.1-8.4 46.6-12.6-21.3-35.5-42.6-71-64-106.6-3-5.1-6.1-10.1-9.1-15.2-9.7-16.2-33.5-16.2-43.2 0-21.3 35.5-42.6 71-64 106.6-3 5.1-6.1 10.1-9.1 15.2 15.5 4.2 31.1 8.4 46.6 12.6v-82.5-130.9-30.2c0-13.1-11.5-25.6-25-25-13.5 0.6-25 11-25 25z" fill="#4381ff" /><path d="M185.8 736.7v-82.5-130.9-30.2c-15.5 4.2-31.1 8.4-46.6 12.6 13 27.4 25.9 54.8 38.9 82.3 20.7 43.7 41.4 87.4 62 131.1 4.7 10 9.5 20.1 14.2 30.1 4.5 9.5 18.4 14.7 28.2 11.5 10.5-3.4 18.4-12.8 18.4-24.1v-82.5-130.9V493c0-13.1-11.5-25.6-25-25-13.5 0.6-25 11-25 25v243.6c15.5-4.2 31.1-8.4 46.6-12.6-13-27.4-25.9-54.8-38.9-82.3-20.7-43.7-41.4-87.4-62-131.1-4.7-10-9.5-20.1-14.2-30.1-4.5-9.5-18.4-14.7-28.2-11.5-10.5 3.4-18.4 12.8-18.4 24.1v243.6c0 13.1 11.5 25.6 25 25 13.5-0.6 25-11 25-25zM478.2 468.2H363c-13.5 0-25 11.5-25 25v240.7c0 13.5 11.5 25 25 25h115.2c13.1 0 25.6-11.5 25-25-0.6-13.5-11-25-25-25H363l25 25v-81.1-129.9-29.7l-25 25h115.2c13.1 0 25.6-11.5 25-25-0.6-13.5-11-25-25-25z" fill="#ff642e" /><path d="M451.2 584.4c-29.4 0.2-58.9 0.5-88.3 0-13.1-0.2-25.6 11.6-25 25 0.6 13.7 11 24.8 25 25 29.4 0.5 58.9 0.2 88.3 0 13.1-0.1 25.6-11.4 25-25-0.6-13.5-10.9-25-25-25zM537.4 493.2v243.6c0 10.6 7.7 21.7 18.4 24.1 10.9 2.5 22.3-1.7 28.2-11.5 21.4-35.6 42.8-71.1 64.3-106.7 3-5 6-10 9.1-15h-43.2c21.4 35.6 42.8 71.1 64.3 106.7 3 5 6 10 9.1 15 5.5 9.1 17.7 14.9 28.2 11.5 10.5-3.4 18.4-12.8 18.4-24.1v-82.5-130.9-30.2c0-13.1-11.5-25.6-25-25-13.5 0.6-25 11-25 25v243.6c15.5-4.2 31.1-8.4 46.6-12.6-21.4-35.6-42.8-71.1-64.3-106.7-3-5-6-10-9.1-15-9.7-16.2-33.4-16.2-43.2 0-21.4 35.6-42.8 71.1-64.3 106.7-3 5-6 10-9.1 15 15.5 4.2 31.1 8.4 46.6 12.6v-82.5-130.9-30.2c0-13.1-11.5-25.6-25-25-13.5 0.6-25 11-25 25z" fill="#ff642e" /><path d="M645.2 832.6h85.2" fill="#ffffff" /><path d="M645.2 857.6h85.3c13.1 0 25.6-11.5 25-25-0.6-13.5-11-25-25-25h-85.3c-13.1 0-25.6 11.5-25 25 0.6 13.5 11 25 25 25z" fill="#ffcb40" /><path d="M557.7 832.6h6.5" fill="#ffffff" /><path d="M557.7 857.6h6.5c3.4 0.1 6.7-0.6 9.6-2.2 3.1-1 5.8-2.7 8-5.2 2.4-2.3 4.2-4.9 5.2-8 1.6-3 2.3-6.2 2.2-9.6l-0.9-6.6c-1.2-4.2-3.3-7.9-6.4-11-4.9-4.5-10.9-7.3-17.7-7.3h-6.5c-3.4-0.1-6.7 0.6-9.6 2.2-3.1 1-5.8 2.7-8 5.2-2.4 2.3-4.2 4.9-5.2 8-1.6 3-2.3 6.2-2.2 9.6l0.9 6.6c1.2 4.2 3.3 7.9 6.4 11 4.9 4.5 10.9 7.3 17.7 7.3z" fill="#ffcb40" /></svg>